<svg version="1.1" id="Layer_1" xmlns="http://www.w3.org/2000/svg" xmlns:xlink="http://www.w3.org/1999/xlink" x="0px" y="0px"
	 width="100%" viewBox="0 0 1024 944" enable-background="new 0 0 1024 944" xml:space="preserve">
<path fill="#000000" opacity="1.000000" stroke="none" 
	d="
M298.317566,433.000061 
	C298.317261,449.708832 298.317261,465.917542 298.317261,481.966766 
	C301.758484,482.495331 302.661896,480.641296 303.853027,479.373993 
	C351.425934,428.760071 398.998199,378.145538 446.495483,327.460724 
	C448.971710,324.818298 451.492462,323.630524 455.164001,323.668976 
	C471.823914,323.843445 488.486694,323.735565 505.148438,323.752167 
	C506.781952,323.753784 508.415344,323.911652 509.946533,323.991669 
	C510.874664,326.685455 508.848755,327.628510 507.704498,328.841919 
	C477.190887,361.200348 446.624695,393.509216 416.092957,425.850555 
	C406.830536,435.661926 397.619934,445.522583 388.431305,455.403137 
	C383.789368,460.394623 383.728302,461.184814 387.685333,466.407715 
	C425.006805,515.668701 462.351044,564.912354 499.686523,614.162659 
	C505.925873,622.393127 512.163879,630.624573 518.378357,638.873901 
	C519.261658,640.046387 520.433716,641.101074 520.429138,642.812195 
	C519.159119,644.736511 517.138000,644.034790 515.433716,644.041138 
	C498.939026,644.102356 482.443451,644.006104 465.949585,644.138306 
	C462.222168,644.168152 459.863892,642.751709 457.638977,639.797974 
	C425.165894,596.687988 392.588165,553.656921 360.017761,510.620300 
	C356.731445,506.277924 354.127319,501.377106 349.842926,497.694763 
	C344.931091,502.401306 339.957306,506.763000 335.451843,511.564148 
	C324.283478,523.465637 313.425690,535.659119 302.222046,547.526550 
	C299.354950,550.563538 298.229095,553.660400 298.249390,557.769165 
	C298.381073,584.427368 298.188507,611.087708 298.427979,637.744385 
	C298.474457,642.915955 296.778931,644.298523 291.827332,644.183411 
	C279.338196,643.892944 266.834900,643.976562 254.342239,644.194519 
	C249.976044,644.270691 248.607925,642.733093 248.611511,638.388367 
	C248.696304,535.418762 248.684357,432.449066 248.585083,329.479492 
	C248.580948,325.196014 249.825943,323.571075 254.276962,323.655151 
	C267.102112,323.897308 279.936615,323.892456 292.762848,323.691742 
	C297.173645,323.622711 298.446960,325.216980 298.427521,329.534302 
	C298.272919,363.855713 298.327454,398.178009 298.317566,433.000061 
z"/>
<path fill="#000000" opacity="1.000000" stroke="none" 
	d="
M519.806152,331.103943 
	C519.841370,323.768646 519.841370,323.752228 526.257019,323.751770 
	C605.724060,323.746002 685.191101,323.745117 764.658142,323.745636 
	C766.157349,323.745667 767.657471,323.819031 769.155579,323.786407 
	C771.744812,323.730042 772.629272,325.051544 772.607056,327.520386 
	C772.492920,340.178833 772.327698,352.839417 772.470093,365.496033 
	C772.518066,369.756775 769.966309,369.382629 767.242188,369.381256 
	C743.418701,369.369263 719.595276,369.370209 695.771790,369.370270 
	C689.774353,369.370270 683.776733,369.359497 677.779480,369.392426 
	C671.645508,369.426117 671.290344,369.754669 671.287842,375.925323 
	C671.271729,415.075775 671.282227,454.226227 671.278198,493.376678 
	C671.273254,541.356812 671.264099,589.336914 671.252686,637.317017 
	C671.251099,643.969666 671.108521,644.112000 664.624634,644.112854 
	C652.463135,644.114563 640.301636,644.124023 628.140198,644.096558 
	C621.841248,644.082336 621.685059,643.905518 621.684937,637.669678 
	C621.683655,551.372131 621.691956,465.074646 621.678955,378.777130 
	C621.677429,368.603943 622.551514,369.373535 612.213379,369.380432 
	C583.558655,369.399597 554.903015,369.297913 526.249939,369.518158 
	C521.269287,369.556458 519.530151,368.227875 519.714050,363.072205 
	C520.087891,352.590454 519.814392,342.085571 519.806152,331.103943 
z"/>
<path fill="#000000" opacity="1.000000" stroke="none" 
	d="
M405.999908,709.318787 
	C356.015442,709.310608 306.530945,709.302856 257.046478,709.295044 
	C256.046783,709.294922 255.036530,709.388306 254.049606,709.276123 
	C251.931076,709.035339 248.791306,710.134155 248.873672,706.403809 
	C248.955566,702.695007 252.113373,703.727478 254.190430,703.725403 
	C317.836975,703.664307 381.483582,703.662292 445.130188,703.660339 
	C550.763611,703.657104 656.396973,703.659851 762.030396,703.663574 
	C764.195984,703.663696 766.361633,703.703430 768.527161,703.731628 
	C770.234314,703.753906 771.444275,704.357605 771.501709,706.300293 
	C771.565186,708.450623 770.362915,709.257996 768.386353,709.268799 
	C766.887024,709.276978 765.387756,709.315491 763.888489,709.315491 
	C644.758972,709.318237 525.629456,709.318604 405.999908,709.318787 
z"/>
</svg>